<svg xmlns="http://www.w3.org/2000/svg" xmlns:xlink="http://www.w3.org/1999/xlink" version="1.1" viewBox="616 0 268 146"><svg xml:space="preserve" width="1500" height="146" data-version="2" data-id="lg_HziNIWsWc5dAm0DPvf" viewBox="0 0 268 146" x="0" y="0"><rect width="100%" height="100%" fill="transparent"/><path fill="#0074d9" d="M135.222 106.922c18.946 0 34.302-15.358 34.302-34.302 0-18.949-15.356-34.304-34.302-34.304a34.159 34.159 0 0 0-22.116 8.091L132.7 71.7l-30.368-8.804a34.307 34.307 0 0 0-1.41 9.724c-.002 18.944 15.362 34.302 34.3 34.302"/><path fill="#0074d9" d="M258.41 68.364c-31.268-42.468-77.72-66.82-127.447-66.82-47.52 0-92.64 22.6-123.78 62.005L2.7 69.219l4.285 5.82c31.273 42.468 77.727 66.817 127.45 66.817 47.522 0 92.637-22.6 123.78-62.005l4.485-5.668zm-123.88 51.88c-26.262 0-47.626-21.366-47.626-47.624A47.4 47.4 0 0 1 88.9 59.001l-10.917-3.166a58.77 58.77 0 0 0-2.447 16.785c0 17.779 7.94 33.71 20.426 44.53-26.47-8.067-50.487-24.39-69.217-47.522C45.938 47.564 70.279 32.22 96.752 25.07l.983 1.488 6.958 8.98a47.398 47.398 0 0 1 29.843-10.546c26.26 0 47.621 21.365 47.621 47.63-.005 26.257-21.367 47.621-47.627 47.621m38.792-3.291c12.35-10.821 20.202-26.663 20.202-44.33 0-18.315-8.395-34.705-21.525-45.531 25.457 8.322 48.534 24.297 66.659 46.683-18.06 20.753-40.675 35.536-65.336 43.178"/><circle r="17.6" fill="#0074d9" transform="translate(134 73)"/><path fill="#fff" d="M135.163 105.294c18.037 0 32.655-14.621 32.655-32.655 0-18.04-14.618-32.658-32.655-32.658a32.52 32.52 0 0 0-21.054 7.703l18.653 24.078-28.91-8.38a32.66 32.66 0 0 0-1.342 9.257c-.002 18.034 14.624 32.655 32.653 32.655"/><path fill="#fff" d="M252.438 68.587c-29.767-40.43-73.989-63.613-121.33-63.613-45.239 0-88.193 21.514-117.839 59.029L9.002 69.4l4.08 5.54c29.77 40.43 73.995 63.61 121.331 63.61 45.242 0 88.191-21.515 117.84-59.029l4.269-5.396zm-117.933 49.39c-25.002 0-45.341-20.341-45.341-45.338 0-4.508.67-8.857 1.9-12.966L80.672 56.66a55.95 55.95 0 0 0-2.329 15.98c0 16.925 7.56 32.09 19.445 42.392-25.2-7.68-48.063-23.22-65.894-45.241C50.165 48.785 73.337 34.179 98.54 27.372l.936 1.416 6.623 8.55a45.123 45.123 0 0 1 28.41-10.04c25 0 45.336 20.339 45.336 45.343-.005 24.997-20.34 45.336-45.34 45.336m36.93-3.134c11.757-10.302 19.232-25.383 19.232-42.202 0-17.435-7.993-33.039-20.492-43.346 24.234 7.923 46.204 23.131 63.459 44.443-17.193 19.757-38.722 33.83-62.2 41.105"/><circle r="18.53" fill="#0074d9" transform="translate(134 72.07)"/></svg></svg>